# xmcd
#
# Track frame offsets: 
#        151
#        15228
#        31282
#        46789
#        64651
#        81567
#        95492
#        121842
#        136091
#        151175
#        173720
#        190793
#        205108
#        230560
#        250141
#
# Disc length: 3617 seconds
#
# Revision: 0
# Processed by: cddbd v1.5PL3 Copyright (c) Steve Scherf et al.
# Submitted via: ExactAudioCopy v0.95a5
#
DISCID=b40e1f0f
DTITLE=Jeff Felonius Smith and Philip Wendover Johnston - Acoustic Blu
DTITLE=es
DYEAR=1994
DGENRE=Blues
TTITLE0=Walk On Boy
TTITLE1=Ditty Wa Ditty
TTITLE2=Frigidaire Woman
TTITLE3=Deep River Blues
TTITLE4=Good Morning Blues
TTITLE5=Walking Blues
TTITLE6=I've Been So Alone
TTITLE7=San Francisco Bay Blues
TTITLE8=Homesick and Lonesome Blues
TTITLE9=Hesitation Blues
TTITLE10=Belly Button Window
TTITLE11=You Can't Get That Stuff No More
TTITLE12=St. James Infirmary
TTITLE13=Sweet Home Chicago
TTITLE14=Hangman's Blues
EXTD=
EXTT0=
EXTT1=
EXTT2=
EXTT3=
EXTT4=
EXTT5=
EXTT6=
EXTT7=
EXTT8=
EXTT9=
EXTT10=
EXTT11=
EXTT12=
EXTT13=
EXTT14=
PLAYORDER=
